<?xml version="1.0" encoding="UTF-8" standalone="no"?>
<svg
   xmlns:dc="http://purl.org/dc/elements/1.1/"
   xmlns:cc="http://creativecommons.org/ns#"
   xmlns:rdf="http://www.w3.org/1999/02/22-rdf-syntax-ns#"
   xmlns:svg="http://www.w3.org/2000/svg"
   xmlns="http://www.w3.org/2000/svg"
   xmlns:sodipodi="http://sodipodi.sourceforge.net/DTD/sodipodi-0.dtd"
   xmlns:inkscape="http://www.inkscape.org/namespaces/inkscape"
   width="512"
   height="512"
   viewBox="0 0 512 512"
   version="1.1"
   id="svg4575"
   inkscape:version="1.0.2 (e86c870879, 2021-01-15)"
   sodipodi:docname="logo.svg">
  <defs
     id="defs4569" />
  <sodipodi:namedview
     id="base"
     pagecolor="#ffffff"
     bordercolor="#666666"
     borderopacity="1.0"
     inkscape:pageopacity="0.0"
     inkscape:pageshadow="2"
     inkscape:zoom="0.175"
     inkscape:cx="2896.3819"
     inkscape:cy="-1476.1068"
     inkscape:document-units="px"
     inkscape:current-layer="layer1"
     showgrid="false"
     units="px"
     inkscape:pagecheckerboard="true"
     inkscape:window-width="2408"
     inkscape:window-height="1411"
     inkscape:window-x="30"
     inkscape:window-y="0"
     inkscape:window-maximized="1"
     inkscape:document-rotation="0"
     borderlayer="true" />
  <metadata
     id="metadata4572">
    <rdf:RDF>
      <cc:Work
         rdf:about="">
        <dc:format>image/svg+xml</dc:format>
        <dc:type
           rdf:resource="http://purl.org/dc/dcmitype/StillImage" />
        <dc:title></dc:title>
      </cc:Work>
    </rdf:RDF>
  </metadata>
  <g
     inkscape:label="ref"
     inkscape:groupmode="layer"
     id="layer1"
     transform="translate(0,-161.53332)">
    <path
       id="path971"
       style="fill:#c4d9f5;stroke:#3250b0;stroke-width:24.0941;stroke-linecap:round;stroke-linejoin:round;stroke-miterlimit:4;stroke-dasharray:none"
       d="m 376.46989,342.23875 v 0 c 0,-60.3931 30.1695,-116.7938 80.4738,-150.3183 -70.6428,3.8412 -132.5918,48.6345 -158.2911,114.8458 -13.6006,3.5918 -27.9209,5.3549 -42.6533,5.3549 -14.7317,0 -29.052,-1.7631 -42.6532,-5.3549 -25.6994,-66.2113 -87.6483,-111.0046 -158.291101,-114.8452 50.304301,33.5239 80.473801,89.9252 80.473801,150.3177 v 0 c 0,31.0501 -8.0005,61.5762 -23.5599,88.4224 52.0632,33.1825 83.5825,90.6481 83.5825,152.3869 v 0 c 0,4.1797 -0.1445,8.3576 -0.4758,13.1391 17.6314,16.5448 38.2789,28.8298 60.7135,36.7616 22.4353,-7.9318 43.0821,-20.2168 60.7136,-36.7616 -0.3313,-4.7815 -0.4759,-8.9594 -0.4759,-13.1391 v 0 c 0,-61.7388 31.5193,-119.2044 83.7951,-152.3869 -15.3467,-26.8462 -23.3472,-57.3723 -23.3472,-88.4224 z"
       sodipodi:nodetypes="ssccsccsscsscccsscs" />
    <path
       style="fill:none;stroke:#f01d0a;stroke-width:24.0941;stroke-linecap:round;stroke-linejoin:round;stroke-miterlimit:4;stroke-dasharray:none"
       d="m 207.59059,382.47295 v 48.1882"
       id="path1244-3-3"
       sodipodi:nodetypes="cc" />
    <path
       style="fill:none;stroke:#f01d0a;stroke-width:24.0941;stroke-linecap:round;stroke-linejoin:round;stroke-miterlimit:4;stroke-dasharray:none"
       d="m 304.40799,382.47295 v 48.1882"
       id="path1244-5-6"
       sodipodi:nodetypes="cc" />
    <circle
       style="fill:#3250b0;stroke:none;stroke-width:24.0941;stroke-linecap:round;stroke-linejoin:round;stroke-miterlimit:4;stroke-dasharray:none"
       id="circle1152-5"
       cx="231.69263"
       cy="560.66565"
       r="12.047059" />
    <circle
       style="fill:#3250b0;stroke:none;stroke-width:24.0941;stroke-linecap:round;stroke-linejoin:round;stroke-miterlimit:4;stroke-dasharray:none"
       id="circle1154-6"
       cx="279.88086"
       cy="560.66565"
       r="12.047059" />
  </g>
</svg>
