<svg width="45" height="40" viewBox="0 0 45 40" fill="none" xmlns="http://www.w3.org/2000/svg">
<path d="M22.424 23.9967C24.6316 23.9967 26.4213 22.2071 26.4213 19.9995C26.4213 17.7918 24.6316 16.0022 22.424 16.0022C20.2164 16.0022 18.4268 17.7918 18.4268 19.9995C18.4268 22.2071 20.2164 23.9967 22.424 23.9967Z" fill="#61DAFB"/>
<path fill-rule="evenodd" clip-rule="evenodd" d="M18.3452 12.936C17.6013 14.0272 16.8746 15.1822 16.1757 16.3927C15.4768 17.6032 14.8399 18.8101 14.2668 20C14.8399 21.1899 15.4768 22.3968 16.1757 23.6073C16.8746 24.8178 17.6013 25.9728 18.3453 27.064C19.6623 27.1627 21.0259 27.2146 22.4237 27.2146C23.8215 27.2146 25.1851 27.1627 26.5021 27.064C27.246 25.9728 27.9728 24.8178 28.6717 23.6073C29.3706 22.3968 30.0074 21.1899 30.5805 20C30.0074 18.8101 29.3706 17.6032 28.6717 16.3927C27.9728 15.1822 27.246 14.0272 26.5021 12.936C25.1851 12.8373 23.8215 12.7854 22.4237 12.7854C21.0259 12.7854 19.6623 12.8373 18.3452 12.936ZM15.8441 13.1854C15.3816 13.9083 14.9285 14.6531 14.487 15.4178C14.0456 16.1824 13.6271 16.9473 13.2323 17.7092C12.6776 16.3928 12.2061 15.1093 11.82 13.878C13.0794 13.5966 14.4268 13.3633 15.8441 13.1854ZM19.8119 10.8946C20.6692 10.8556 21.5408 10.8355 22.4237 10.8355C23.3066 10.8355 24.1782 10.8556 25.0355 10.8946C24.1728 9.7561 23.297 8.70596 22.4237 7.75597C21.5503 8.70596 20.6745 9.7561 19.8119 10.8946ZM21.0633 6.35484C19.7794 7.74366 18.5006 9.32701 17.2676 11.0695C15.1421 11.266 13.1315 11.5818 11.2868 11.9993C11.0766 11.1681 10.9101 10.3683 10.788 9.60659C10.4704 7.62415 10.463 5.95329 10.7348 4.68236C11.0067 3.4113 11.5297 2.64856 12.1868 2.26918C12.8439 1.8898 13.7659 1.81824 15.0026 2.21832C16.2392 2.61836 17.6825 3.46025 19.2405 4.72653C19.8391 5.21305 20.4486 5.75721 21.0633 6.35484ZM23.784 6.35484C25.068 7.74366 26.3468 9.32701 27.5797 11.0695C29.7052 11.266 31.7158 11.5818 33.5606 11.9993C33.7708 11.1681 33.9373 10.3683 34.0593 9.60658C34.3769 7.62415 34.3844 5.95329 34.1125 4.68236C33.8407 3.4113 33.3177 2.64855 32.6606 2.26918C32.0035 1.8898 31.0814 1.81824 29.8447 2.21832C28.6081 2.61836 27.1649 3.46025 25.6068 4.72653C25.0082 5.21305 24.3988 5.75721 23.784 6.35484ZM35.4505 12.479C35.6746 11.5929 35.8531 10.7359 35.9847 9.91505C36.3243 7.79504 36.3591 5.86329 36.0193 4.27452C35.6795 2.6859 34.9369 1.33188 33.6355 0.580525C32.3341 -0.170832 30.7902 -0.136939 29.2445 0.363103C27.6987 0.863189 26.0432 1.85922 24.377 3.21338C23.7319 3.73769 23.079 4.32077 22.4237 4.9579C21.7684 4.32077 21.1155 3.73769 20.4703 3.21338C18.8042 1.85922 17.1486 0.86319 15.6028 0.363104C14.0571 -0.136938 12.5132 -0.170831 11.2118 0.580526C9.91045 1.33188 9.16784 2.6859 8.82805 4.27452C8.48823 5.86329 8.52305 7.79504 8.8627 9.91505C8.99421 10.7359 9.17272 11.5929 9.39684 12.479C8.51741 12.7279 7.68599 13.0018 6.90937 13.2983C4.90356 14.0642 3.2132 14.9999 2.0072 16.0886C0.801309 17.1772 0 18.4973 0 20C0 21.5027 0.801309 22.8228 2.0072 23.9114C3.2132 25.0001 4.90356 25.9358 6.90937 26.7017C7.68599 26.9982 8.51741 27.2721 9.39684 27.521C9.17272 28.4071 8.99421 29.2641 8.8627 30.0849C8.52305 32.205 8.48823 34.1367 8.82805 35.7255C9.16784 37.3141 9.91045 38.6681 11.2118 39.4195C12.5132 40.1708 14.0571 40.1369 15.6028 39.6369C17.1486 39.1368 18.8042 38.1408 20.4703 36.7866C21.1155 36.2623 21.7684 35.6792 22.4237 35.0421C23.079 35.6792 23.7319 36.2623 24.377 36.7866C26.0432 38.1408 27.6987 39.1368 29.2445 39.6369C30.7902 40.1369 32.3341 40.1708 33.6355 39.4195C34.9369 38.6681 35.6795 37.3141 36.0193 35.7255C36.3591 34.1367 36.3243 32.205 35.9847 30.0849C35.8531 29.2641 35.6746 28.4071 35.4505 27.521C36.3299 27.2721 37.1614 26.9982 37.938 26.7017C39.9438 25.9358 41.6342 25.0001 42.8402 23.9114C44.046 22.8228 44.8474 21.5027 44.8474 20C44.8474 18.4973 44.046 17.1772 42.8402 16.0886C41.6342 14.9999 39.9438 14.0642 37.938 13.2983C37.1614 13.0018 36.3299 12.7279 35.4505 12.479ZM33.0273 13.878C31.7679 13.5966 30.4206 13.3633 29.0033 13.1854C29.4657 13.9083 29.9189 14.6531 30.3603 15.4178C30.8018 16.1824 31.2202 16.9473 31.6151 17.7092C32.1697 16.3928 32.6413 15.1093 33.0273 13.878ZM32.7358 20C33.6283 18.061 34.3601 16.1619 34.9209 14.3555C35.7458 14.5891 36.5218 14.8448 37.2425 15.1199C39.1181 15.8361 40.5688 16.6651 41.5336 17.536C42.4984 18.4069 42.8975 19.2412 42.8975 20C42.8975 20.7588 42.4984 21.5931 41.5336 22.464C40.5688 23.3349 39.1181 24.1639 37.2425 24.8801C36.5218 25.1552 35.7458 25.4109 34.9209 25.6445C34.3601 23.8381 33.6283 21.939 32.7358 20ZM31.6151 22.2908C31.2202 23.0528 30.8018 23.8176 30.3603 24.5822C29.9189 25.3469 29.4657 26.0917 29.0033 26.8146C30.4206 26.6367 31.7679 26.4034 33.0273 26.122C32.6413 24.8907 32.1697 23.6072 31.6151 22.2908ZM33.5606 28.0007C31.7158 28.4182 29.7052 28.734 27.5797 28.9305C26.3468 30.673 25.068 32.2563 23.784 33.6452C24.3988 34.2428 25.0082 34.787 25.6068 35.2735C27.1649 36.5398 28.6081 37.3816 29.8447 37.7817C31.0814 38.1818 32.0035 38.1102 32.6606 37.7308C33.3177 37.3514 33.8407 36.5887 34.1125 35.3176C34.3844 34.0467 34.3769 32.3759 34.0593 30.3934C33.9373 29.6317 33.7708 28.8319 33.5606 28.0007ZM22.4237 32.244C23.297 31.294 24.1728 30.2439 25.0355 29.1054C24.1782 29.1444 23.3066 29.1645 22.4237 29.1645C21.5408 29.1645 20.6692 29.1444 19.8119 29.1054C20.6745 30.2439 21.5503 31.294 22.4237 32.244ZM15.8441 26.8146C15.3816 26.0917 14.9285 25.3469 14.487 24.5822C14.0456 23.8176 13.6271 23.0528 13.2323 22.2908C12.6776 23.6072 12.2061 24.8907 11.82 26.122C13.0794 26.4034 14.4268 26.6367 15.8441 26.8146ZM11.2868 28.0007C13.1315 28.4182 15.1421 28.734 17.2676 28.9305C18.5006 30.673 19.7794 32.2563 21.0633 33.6452C20.4486 34.2428 19.8391 34.787 19.2405 35.2735C17.6825 36.5398 16.2392 37.3816 15.0026 37.7817C13.7659 38.1818 12.8439 38.1102 12.1868 37.7308C11.5297 37.3514 11.0067 36.5887 10.7348 35.3176C10.463 34.0467 10.4704 32.3759 10.788 30.3934C10.9101 29.6317 11.0766 28.8319 11.2868 28.0007ZM9.92645 25.6445C9.10152 25.4109 8.32553 25.1552 7.60489 24.8801C5.72925 24.1639 4.27851 23.3349 3.31378 22.464C2.34894 21.5931 1.94989 20.7588 1.94989 20C1.94989 19.2412 2.34894 18.4069 3.31378 17.536C4.27851 16.6651 5.72925 15.8361 7.60489 15.1199C8.32553 14.8448 9.10152 14.5891 9.92645 14.3555C10.4872 16.1619 11.219 18.061 12.1116 20C11.219 21.939 10.4872 23.8381 9.92645 25.6445Z" fill="#61DAFB"/>
</svg>
