<svg width="16" height="16" viewBox="0 0 16 16" fill="none" xmlns="http://www.w3.org/2000/svg">
<path fill-rule="evenodd" clip-rule="evenodd" d="M6.66667 2.5C5.5616 2.5 4.50179 2.93899 3.72039 3.72039C2.93899 4.50179 2.5 5.5616 2.5 6.66667C2.5 7.21384 2.60777 7.75566 2.81717 8.26118C3.02656 8.7667 3.33348 9.22603 3.72039 9.61295C4.1073 9.99986 4.56663 10.3068 5.07215 10.5162C5.57768 10.7256 6.11949 10.8333 6.66667 10.8333C7.21384 10.8333 7.75566 10.7256 8.26118 10.5162C8.7667 10.3068 9.22603 9.99986 9.61295 9.61295C9.99986 9.22603 10.3068 8.7667 10.5162 8.26118C10.7256 7.75566 10.8333 7.21384 10.8333 6.66667C10.8333 5.5616 10.3943 4.50179 9.61295 3.72039C8.83154 2.93899 7.77174 2.5 6.66667 2.5ZM3.01328 3.01328C3.98222 2.04434 5.29638 1.5 6.66667 1.5C8.03695 1.5 9.35111 2.04434 10.3201 3.01328C11.289 3.98222 11.8333 5.29638 11.8333 6.66667C11.8333 7.34516 11.6997 8.01702 11.44 8.64386C11.2444 9.11618 10.9801 9.55598 10.6565 9.94935L14.3536 13.6464C14.5488 13.8417 14.5488 14.1583 14.3536 14.3536C14.1583 14.5488 13.8417 14.5488 13.6464 14.3536L9.94935 10.6565C9.55598 10.9801 9.11618 11.2444 8.64386 11.44C8.01702 11.6997 7.34516 11.8333 6.66667 11.8333C5.98817 11.8333 5.31632 11.6997 4.68947 11.44C4.06262 11.1804 3.49305 10.7998 3.01328 10.3201C2.53351 9.84028 2.15294 9.27071 1.89329 8.64386C1.63364 8.01702 1.5 7.34516 1.5 6.66667C1.5 5.29638 2.04434 3.98222 3.01328 3.01328Z" fill="#808E9A"/>
</svg>
