<svg width="32" height="33" viewBox="0 0 32 33" fill="none" xmlns="http://www.w3.org/2000/svg">
<g clip-path="url(#clip0_1_8265)">
<path d="M23.9026 0.5H8.09733C3.6253 0.5 0 4.12532 0 8.59736V24.4026C0 28.8747 3.6253 32.5 8.09733 32.5H23.9026C28.3747 32.5 32 28.8747 32 24.4026V8.59736C32 4.12532 28.3747 0.5 23.9026 0.5Z" fill="#00DDB3"/>
<path d="M24.3228 7.66782C18.8067 7.66782 16.7722 11.6005 15.132 14.7609L14.0531 16.7808C12.3139 20.1326 11.016 22.1687 7.6706 22.1687C7.46273 22.1685 7.25687 22.2092 7.06477 22.2886C6.87267 22.368 6.69809 22.4845 6.55103 22.6314C6.40397 22.7784 6.28731 22.9528 6.20772 23.1448C6.12812 23.3368 6.08716 23.5427 6.08716 23.7505C6.08716 23.9584 6.12812 24.1642 6.20772 24.3563C6.28731 24.5483 6.40397 24.7227 6.55103 24.8696C6.69809 25.0165 6.87267 25.133 7.06477 25.2124C7.25687 25.2918 7.46273 25.3326 7.6706 25.3323C13.1867 25.3323 15.2212 21.3997 16.8614 18.2393L17.9338 16.2194C19.673 12.8676 20.9709 10.8315 24.3163 10.8315C24.5242 10.8317 24.73 10.7909 24.9221 10.7115C25.1142 10.6321 25.2888 10.5156 25.4359 10.3687C25.5829 10.2218 25.6996 10.0474 25.7792 9.85535C25.8588 9.66332 25.8997 9.45751 25.8997 9.24964C25.8997 9.04178 25.8588 8.83592 25.7792 8.6439C25.6996 8.45188 25.5829 8.27744 25.4359 8.13053C25.2888 7.98362 25.1142 7.86715 24.9221 7.78775C24.73 7.70835 24.5242 7.6676 24.3163 7.66782H24.3228Z" fill="white"/>
</g>
<defs>
<clipPath id="clip0_1_8265">
<rect width="32" height="32" fill="white" transform="translate(0 0.5)"/>
</clipPath>
</defs>
</svg>
