<svg width="40" height="40" viewBox="0 0 40 40" fill="none" xmlns="http://www.w3.org/2000/svg">
<g clip-path="url(#clip0_157_11676)">
<path d="M29.8783 0H10.1217C4.53162 0 0 4.53166 0 10.1217V29.8783C0 35.4683 4.53162 40 10.1217 40H29.8783C35.4683 40 40 35.4683 40 29.8783V10.1217C40 4.53166 35.4683 0 29.8783 0Z" fill="#00DDB3"/>
<path d="M30.4039 8.95972C23.5088 8.95972 20.9657 13.8755 18.9154 17.8261L17.5668 20.3509C15.3928 24.5407 13.7704 27.0858 9.58868 27.0858C9.32885 27.0855 9.07152 27.1365 8.83139 27.2357C8.59126 27.335 8.37304 27.4806 8.18921 27.6643C8.00539 27.8479 7.85957 28.0659 7.76008 28.306C7.66058 28.546 7.60937 28.8033 7.60938 29.0631V29.0631C7.60937 29.3229 7.66058 29.5802 7.76008 29.8203C7.85957 30.0603 8.00539 30.2784 8.18921 30.462C8.37304 30.6456 8.59126 30.7912 8.83139 30.8905C9.07152 30.9897 9.32885 31.0406 9.58868 31.0404V31.0404C16.4838 31.0404 19.0269 26.1246 21.0772 22.174L22.4177 19.6492C24.5917 15.4594 26.2141 12.9143 30.3958 12.9143C30.6556 12.9146 30.913 12.8636 31.1531 12.7644C31.3932 12.6651 31.6114 12.5195 31.7953 12.3358C31.9791 12.1522 32.1249 11.9342 32.2244 11.6941C32.3239 11.4541 32.3751 11.1968 32.3751 10.937V10.937C32.3751 10.6772 32.3239 10.4199 32.2244 10.1798C32.1249 9.9398 31.9791 9.72174 31.7953 9.53811C31.6114 9.35447 31.3932 9.20889 31.1531 9.10964C30.913 9.01039 30.6556 8.95945 30.3958 8.95972H30.4039Z" fill="white"/>
</g>
<defs>
<clipPath id="clip0_157_11676">
<rect width="40" height="40" fill="white"/>
</clipPath>
</defs>
</svg>
